<?xml version="1.0" encoding="UTF-8" standalone="no"?>
<svg viewBox="0 0 400 300" xmlns="http://www.w3.org/2000/svg">
  <!-- Dark Background -->
  <rect x="0" y="0" width="400" height="300" fill="#121212"/>
  
  <!-- Grunge Texture Effect -->
  <rect x="20" y="20" width="360" height="260" fill="#1a1a1a" opacity="0.7"/>
  <g opacity="0.1">
    <path d="M0,0 L400,300 M50,0 L400,250 M100,0 L400,200 M150,0 L400,150 M200,0 L400,100 M250,0 L400,50 M300,0 L400,0" stroke="#ffffff" stroke-width="0.5"/>
  </g>
  
  <!-- YC Bold Letters -->
  <g transform="translate(100, 100)">
    <!-- Y Letter with rock edge effect -->
    <path d="M10,10 L50,10 L75,70 L65,80 L50,50 L40,80 L30,80 L40,50 L0,10 Z" fill="#f20c0c"/>
    <path d="M10,10 L50,10 L75,70 L65,80 L50,50 L40,80 L30,80 L40,50 L0,10 Z" fill="url(#gradientY)" stroke="#222222" stroke-width="1"/>
    
    <!-- C Letter with rock edge effect -->
    <path d="M120,10 Q160,0 180,40 L160,50 Q150,30 130,30 Q110,30 100,50 Q90,70 100,90 Q110,110 130,110 Q150,110 160,90 L180,100 Q160,140 120,130 Q80,120 70,80 Q60,40 120,10 Z" fill="#f20c0c"/>
    <path d="M120,10 Q160,0 180,40 L160,50 Q150,30 130,30 Q110,30 100,50 Q90,70 100,90 Q110,110 130,110 Q150,110 160,90 L180,100 Q160,140 120,130 Q80,120 70,80 Q60,40 120,10 Z" fill="url(#gradientC)" stroke="#222222" stroke-width="1"/>
  </g>
  
  <!-- Gradients for rock metal effect -->
  <defs>
    <linearGradient id="gradientY" x1="0%" y1="0%" x2="100%" y2="100%">
      <stop offset="0%" stop-color="#ff4d00" stop-opacity="0.9"/>
      <stop offset="50%" stop-color="#cc0000" stop-opacity="0.9"/>
      <stop offset="100%" stop-color="#990000" stop-opacity="0.9"/>
    </linearGradient>
    <linearGradient id="gradientC" x1="0%" y1="0%" x2="100%" y2="100%">
      <stop offset="0%" stop-color="#ff4d00" stop-opacity="0.9"/>
      <stop offset="50%" stop-color="#cc0000" stop-opacity="0.9"/>
      <stop offset="100%" stop-color="#990000" stop-opacity="0.9"/>
    </linearGradient>
  </defs>
  
  <!-- Web Development Text -->
  <text x="200" y="200" font-family="Impact, fantasy" font-size="24" text-anchor="middle" fill="#ffffff" letter-spacing="2">WEB DEVELOPMENT</text>
  
  <!-- Jacob Cohen Text -->
  <text x="200" y="230" font-family="Arial, sans-serif" font-size="16" text-anchor="middle" fill="#cccccc">JACOB COHEN</text>
  
  <!-- Lightning Bolts -->
  <path d="M75,90 L85,110 L70,115 L85,140 L65,120 L80,115 Z" fill="#ffcc00"/>
  <path d="M315,90 L305,110 L320,115 L305,140 L325,120 L310,115 Z" fill="#ffcc00"/>
  
  <!-- Code Elements -->
  <g transform="translate(160, 255)" opacity="0.7">
    <path d="M0,0 L-10,10 L0,20" fill="none" stroke="#ffffff" stroke-width="2" stroke-linecap="round"/>
    <path d="M80,0 L90,10 L80,20" fill="none" stroke="#ffffff" stroke-width="2" stroke-linecap="round"/>
    <line x1="20" y1="5" x2="60" y2="5" stroke="#ffffff" stroke-width="1.5"/>
    <line x1="15" y1="10" x2="65" y2="10" stroke="#ffffff" stroke-width="1.5"/>
    <line x1="20" y1="15" x2="60" y2="15" stroke="#ffffff" stroke-width="1.5"/>
  </g>
</svg>